<?xml version="1.0" standalone="no"?><!DOCTYPE svg PUBLIC "-//W3C//DTD SVG 1.1//EN" "http://www.w3.org/Graphics/SVG/1.1/DTD/svg11.dtd"><svg t="1744203449487" class="icon" viewBox="0 0 1194 1024" version="1.1" xmlns="http://www.w3.org/2000/svg" p-id="13376" xmlns:xlink="http://www.w3.org/1999/xlink" width="233.203125" height="200"><path d="M604.16 197.973333H546.133333c-225.28 0-409.6 184.32-409.6 409.6v331.093334c0 37.546667 30.72 64.853333 64.853334 64.853333h747.52c37.546667 0 64.853333-30.72 64.853333-64.853333v-331.093334c0-225.28-184.32-409.6-409.6-409.6m0 98.986667c170.666667 0 310.613333 139.946667 310.613333 310.613333v296.96H235.52v-296.96c0-170.666667 139.946667-310.613333 310.613333-310.613333h58.026667" fill="#222222" p-id="13377"></path><path d="M573.44 10.24c-78.506667 0-143.36 64.853333-143.36 143.36s64.853333 143.36 143.36 143.36S716.8 232.106667 716.8 153.6 655.36 10.24 573.44 10.24m0 98.986667c23.893333 0 44.373333 20.48 44.373333 44.373333 0 23.893333-20.48 44.373333-44.373333 44.373333-23.893333 0-44.373333-20.48-44.373333-44.373333 3.413333-23.893333 20.48-44.373333 44.373333-44.373333M768 457.386667H382.293333c-37.546667 0-64.853333 30.72-64.853333 64.853333v163.84c0 37.546667 30.72 64.853333 64.853333 64.853333h389.12c37.546667 0 64.853333-30.72 64.853334-64.853333v-163.84c0-34.133333-30.72-64.853333-68.266667-64.853333z m-30.72 197.973333h-320.853333v-98.986667h320.853333v98.986667z" fill="#222222" p-id="13378"></path><path d="M1044.957867 746.222933V561.902933C1044.957867 531.182933 1068.8512 510.702933 1096.157867 510.702933s51.2 23.893333 51.2 51.2v184.32c0 27.306667-23.893333 51.2-51.2 51.2S1044.957867 773.5296 1044.957867 746.222933" fill="#222222" p-id="13379"></path><path d="M3.413333 747.52v-184.32c0-27.306667 23.893333-51.2 51.2-51.2s51.2 23.893333 51.2 51.2v184.32c0 27.306667-23.893333 51.2-51.2 51.2-27.306667-3.413333-51.2-23.893333-51.2-51.2" fill="#222222" p-id="13380"></path></svg>