<?xml version="1.0" standalone="no"?><!DOCTYPE svg PUBLIC "-//W3C//DTD SVG 1.1//EN" "http://www.w3.org/Graphics/SVG/1.1/DTD/svg11.dtd"><svg t="1744203307505" class="icon" viewBox="0 0 1024 1024" version="1.1" xmlns="http://www.w3.org/2000/svg" p-id="5150" xmlns:xlink="http://www.w3.org/1999/xlink" width="200" height="200"><path d="M638.976 327.68c16.384 0 32.768-8.192 36.864-24.576L737.28 184.32h65.536c16.384 32.768 53.248 57.344 94.208 57.344 57.344 0 106.496-49.152 106.496-106.496 0-57.344-49.152-106.496-106.496-106.496-45.056 0-86.016 28.672-102.4 69.632h-86.016c-16.384 0-32.768 8.192-36.864 24.576L614.4 245.76h-204.8L352.256 122.88c-8.192-12.288-24.576-20.48-40.96-20.48h-81.92C212.992 61.44 176.128 32.768 126.976 32.768 69.632 32.768 20.48 81.92 20.48 139.264 20.48 196.608 69.632 245.76 126.976 245.76c40.96 0 73.728-24.576 94.208-57.344H286.72l61.44 118.784c4.096 12.288 20.48 20.48 36.864 20.48h81.92v139.264H274.432c-16.384-36.864-53.248-65.536-98.304-65.536-57.344 0-106.496 49.152-106.496 106.496S118.784 614.4 176.128 614.4c45.056 0 81.92-24.576 98.304-65.536h192.512V696.32h-81.92c-16.384 0-32.768 8.192-36.864 24.576L286.72 839.68H221.184c-16.384-32.768-53.248-57.344-94.208-57.344-57.344 0-106.496 49.152-106.496 106.496 0 57.344 49.152 106.496 106.496 106.496 45.056 0 86.016-28.672 102.4-69.632h86.016c16.384 0 32.768-8.192 36.864-24.576l57.344-122.88h204.8l61.44 118.784c8.192 16.384 20.48 24.576 36.864 24.576h86.016c16.384 40.96 53.248 69.632 102.4 69.632 57.344 0 106.496-49.152 106.496-106.496 0-57.344-49.152-106.496-106.496-106.496-40.96 0-73.728 24.576-94.208 57.344H737.28l-61.44-118.784c-4.096-12.288-20.48-20.48-36.864-20.48h-86.016v-139.264h196.608c16.384 36.864 53.248 65.536 98.304 65.536 57.344 0 106.496-49.152 106.496-106.496S905.216 409.6 847.872 409.6c-45.056 0-81.92 24.576-98.304 65.536h-196.608V327.68h86.016z" p-id="5151"></path></svg>