<?xml version="1.0" standalone="no"?><!DOCTYPE svg PUBLIC "-//W3C//DTD SVG 1.1//EN" "http://www.w3.org/Graphics/SVG/1.1/DTD/svg11.dtd"><svg t="1744203523457" class="icon" viewBox="0 0 1024 1024" version="1.1" xmlns="http://www.w3.org/2000/svg" p-id="22720" xmlns:xlink="http://www.w3.org/1999/xlink" width="200" height="200"><path d="M89.6 223.872a102.4 102.4 0 0 1 102.4-102.4h640a102.4 102.4 0 0 1 102.4 102.4v576a102.4 102.4 0 0 1-102.4 102.4H192a102.4 102.4 0 0 1-102.4-102.4v-576z m102.4-25.6a25.6 25.6 0 0 0-25.6 25.6v576c0 14.144 11.456 25.6 25.6 25.6h640a25.6 25.6 0 0 0 25.6-25.6v-576a25.6 25.6 0 0 0-25.6-25.6H192z" p-id="22721"></path><path d="M512 288m32 0l192 0q32 0 32 32l0 384q0 32-32 32l-192 0q-32 0-32-32l0-384q0-32 32-32Z" p-id="22722"></path></svg>